<svg width="current" height="current" viewBox="0 0 63 63" fill="none"
    xmlns="http://www.w3.org/2000/svg">
    <g clip-path="url(#clip0_1116_37)">
        <g opacity="0.8">
            <path fill-rule="evenodd" clip-rule="evenodd" d="M39.2108 10.042C39.4674 10.1198 39.6922 10.2779 39.852 10.4932C40.0118 10.7085 40.0982 10.9695 40.0983 11.2376L40.0947 27.7875L52.3463 37.0269C52.5483 37.1794 52.6992 37.3897 52.7791 37.6299C52.8589 37.87 52.864 38.1288 52.7936 38.3719C52.7232 38.6151 52.5807 38.8311 52.3849 38.9914C52.189 39.1518 51.9491 39.2489 51.6969 39.27L36.3434 40.5377L26.7726 54.9751C26.6237 55.1991 26.4066 55.3691 26.1534 55.4599C25.9002 55.5507 25.6245 55.5574 25.3673 55.479C25.11 55.4006 24.8849 55.2413 24.7253 55.0248C24.5657 54.8083 24.4803 54.5461 24.4816 54.2771L24.5869 36.9558L12.5486 27.3425C12.351 27.1843 12.206 26.97 12.1328 26.7276C12.0597 26.4853 12.0618 26.2265 12.1389 25.9855C12.2161 25.7444 12.3646 25.5324 12.5648 25.3776C12.765 25.2227 13.0075 25.1323 13.2602 25.1183L28.5822 24.28L37.8097 10.5403C37.9591 10.3182 38.1759 10.1499 38.4281 10.0602C38.6803 9.97048 38.9547 9.96411 39.2108 10.042Z" fill="current"/>
            <path d="M41.7372 60.3368C41.4741 60.2567 41.3172 59.9998 41.3661 59.7534C42.3451 54.8247 42.4527 53.1849 38.0806 51.4085C37.9587 51.3595 37.8599 51.2662 37.804 51.1474C37.7481 51.0286 37.7393 50.893 37.7792 50.7679C37.8594 50.5048 38.1163 50.3479 38.3866 50.4041C43.0615 51.358 43.7513 50.2092 45.6504 45.6915C45.7545 45.4358 46.028 45.31 46.2911 45.3902C46.5541 45.4703 46.7111 45.7272 46.6621 45.9736C45.7123 50.8066 45.6443 52.1449 50.0643 53.9358C50.32 54.0399 50.4458 54.3134 50.3656 54.5765C50.2855 54.8396 50.0286 54.9965 49.7582 54.9403C45.155 54.0082 44.3061 55.4222 42.4018 60.0427C42.2977 60.2985 42.0242 60.4243 41.7611 60.3441L41.7372 60.3368Z" fill="current"/>
        </g>
        <path fill-rule="evenodd" clip-rule="evenodd" d="M35.9879 7.75333C36.2445 7.83107 36.4693 7.98925 36.6291 8.20454C36.7889 8.41982 36.8753 8.68079 36.8754 8.94892L36.8718 25.4989L49.1234 34.7382C49.3254 34.8907 49.4763 35.101 49.5562 35.3412C49.636 35.5813 49.6411 35.8401 49.5707 36.0832C49.5003 36.3264 49.3578 36.5424 49.162 36.7027C48.9661 36.8631 48.7262 36.9602 48.474 36.9813L33.1205 38.249L23.5497 52.6864C23.4008 52.9104 23.1837 53.0804 22.9305 53.1712C22.6773 53.262 22.4016 53.2687 22.1444 53.1903C21.8871 53.1119 21.662 52.9526 21.5024 52.7361C21.3428 52.5196 21.2574 52.2574 21.2587 51.9884L21.364 34.6672L9.3257 25.0538C9.12806 24.8956 8.98307 24.6813 8.90992 24.4389C8.83677 24.1966 8.8389 23.9378 8.91603 23.6968C8.99316 23.4557 9.14165 23.2437 9.34187 23.0889C9.54209 22.934 9.7846 22.8436 10.0373 22.8296L25.3593 21.9913L34.5868 8.25163C34.7362 8.02949 34.953 7.86119 35.2052 7.77148C35.4574 7.68178 35.7318 7.67541 35.9879 7.75333ZM34.3732 13.0528L27.0879 23.9005C26.98 24.0612 26.8361 24.1947 26.6677 24.2903C26.4993 24.386 26.3111 24.4412 26.1177 24.4516L13.4469 25.149L23.3983 33.0942C23.5456 33.2123 23.6643 33.3621 23.7454 33.5326C23.8266 33.7031 23.868 33.8897 23.8667 34.0785L23.7859 47.8111L31.3711 36.3649C31.4753 36.2075 31.6138 36.0757 31.7762 35.9794C31.9386 35.8831 32.1207 35.8249 32.3089 35.8091L44.9999 34.7624L34.869 27.1231C34.7143 27.0067 34.5888 26.8558 34.5023 26.6825C34.4159 26.5093 34.3709 26.3183 34.3709 26.1246L34.3732 13.0528Z" fill="current"/>
        <path d="M40.9549 57.9292C40.7157 57.8563 40.5588 57.5994 40.6077 57.353C41.5033 52.8694 41.5911 51.3803 37.714 49.7809C37.4821 49.6841 37.3564 49.4106 37.4292 49.1714C37.5021 48.9323 37.759 48.7754 38.0054 48.8243C42.2114 49.6876 42.7711 48.7082 44.5277 44.4869C44.6006 44.2478 44.898 44.1293 45.1371 44.2022C45.3763 44.275 45.5332 44.5319 45.4843 44.7784C44.5887 49.262 44.5311 50.3944 48.48 52.0157C48.7119 52.1124 48.8376 52.386 48.7648 52.6251C48.6919 52.8643 48.435 53.0212 48.1886 52.9722C44.0543 52.1308 43.3209 53.4231 41.557 57.6684C41.4842 57.9075 41.2106 58.0333 40.9476 57.9531L40.9549 57.9292Z" fill="current"/>
    </g>
    <defs>
        <clipPath id="clip0_1116_37">
            <rect width="50" height="50" fill="white" transform="translate(14.829) rotate(16.9447)"/>
        </clipPath>
    </defs>
</svg>
