<svg width="current" height="current" viewBox="0 0 20 20" fill="none"
    xmlns="http://www.w3.org/2000/svg">
    <path d="M4.96993 18H14.2499C15.1969 18 15.9649 17.232 15.9649 16.284V8.674C17.5749 8.61 18.5379 6.824 17.6779 5.436L17.1759 4.626C16.9859 4.31907 16.7206 4.06575 16.4053 3.89005C16.0899 3.71435 15.7349 3.62208 15.3739 3.622H13.9389V2.986C13.9389 2.85652 13.9134 2.7283 13.8639 2.60867C13.8143 2.48905 13.7417 2.38035 13.6501 2.28879C13.5586 2.19723 13.4499 2.12461 13.3303 2.07505C13.2106 2.0255 13.0824 2 12.9529 2C12.6318 2.00013 12.3139 2.0635 12.0173 2.1865C11.7208 2.30949 11.4513 2.4897 11.2243 2.71683C10.9974 2.94396 10.8174 3.21357 10.6947 3.51026C10.5719 3.80695 10.5088 4.12492 10.5089 4.446V7.902C9.23093 8.028 8.26593 8.632 7.55693 9.484C6.77493 10.424 6.31393 11.649 6.03993 12.826C5.76393 14.008 5.66693 15.184 5.63693 16.058C5.62493 16.432 5.62493 16.754 5.62893 17H4.96993C4.58574 17 4.20991 16.8878 3.88867 16.6771C3.56743 16.4663 3.31478 16.1663 3.16178 15.8139C3.00879 15.4615 2.96213 15.072 3.02753 14.6935C3.09294 14.3149 3.26756 13.9637 3.52993 13.683L4.44993 12.696C5.08399 12.0159 5.42938 11.1163 5.41333 10.1866C5.39729 9.25696 5.02108 8.3698 4.36393 7.712L3.46093 6.809C3.4148 6.76124 3.35963 6.72315 3.29863 6.69695C3.23763 6.67074 3.17202 6.65695 3.10563 6.65637C3.03924 6.6558 2.9734 6.66845 2.91195 6.69359C2.8505 6.71873 2.79468 6.75586 2.74773 6.8028C2.70078 6.84975 2.66366 6.90557 2.63852 6.96702C2.61338 7.02847 2.60072 7.09431 2.6013 7.1607C2.60188 7.22709 2.61567 7.2927 2.64188 7.3537C2.66808 7.4147 2.70617 7.46988 2.75393 7.516L3.65693 8.419C4.13134 8.89326 4.40298 9.53326 4.41455 10.204C4.42612 10.8747 4.1767 11.5237 3.71893 12.014L2.79893 13.001C2.40464 13.4244 2.14248 13.9537 2.04458 14.5239C1.94668 15.0942 2.01729 15.6806 2.24777 16.2113C2.47824 16.742 2.85855 17.1939 3.34209 17.5116C3.82562 17.8293 4.39135 17.9991 4.96993 18ZM12.9399 3V4.122C12.9399 4.25461 12.9926 4.38179 13.0864 4.47555C13.1801 4.56932 13.3073 4.622 13.4399 4.622H15.3739C15.7619 4.622 16.1219 4.822 16.3259 5.152L16.8289 5.963C16.9342 6.13288 16.9922 6.3278 16.9969 6.5276C17.0016 6.7274 16.9528 6.92483 16.8557 7.09947C16.7585 7.27412 16.6165 7.41965 16.4442 7.521C16.272 7.62236 16.0758 7.67587 15.8759 7.676H15.4659C15.3333 7.676 15.2061 7.72868 15.1124 7.82245C15.0186 7.91622 14.9659 8.04339 14.9659 8.176V16.284C14.9659 16.679 14.6459 17 14.2499 17H13.5339V16.284C13.5342 15.5066 13.2257 14.7608 12.6762 14.2108C12.1268 13.6608 11.3814 13.3515 10.6039 13.351H9.58993C9.45732 13.351 9.33014 13.4037 9.23637 13.4974C9.1426 13.5912 9.08993 13.7184 9.08993 13.851C9.08993 13.9836 9.1426 14.1108 9.23637 14.2046C9.33014 14.2983 9.45732 14.351 9.58993 14.351H10.6029C11.6699 14.351 12.5349 15.216 12.5349 16.284V17H6.62893C6.62393 16.766 6.62393 16.456 6.63593 16.091C6.66393 15.255 6.75593 14.151 7.01293 13.053C7.26993 11.949 7.68293 10.894 8.32493 10.123C8.95193 9.372 9.80293 8.878 11.0089 8.878C11.1415 8.878 11.2687 8.82532 11.3625 8.73155C11.4562 8.63778 11.5089 8.51061 11.5089 8.378V4.446C11.5089 3.652 12.1489 3.007 12.9399 3Z" fill="current"/>
</svg>
